<svg width="105" height="24" viewBox="0 0 105 24" fill="none" xmlns="http://www.w3.org/2000/svg">
<path d="M5.86 0.499998V20.48L3.31 17.99H20.17V23H0.19V0.499998H5.86ZM34.0211 23.48C31.3811 23.48 29.0611 22.99 27.0611 22.01C25.0811 21.03 23.5411 19.66 22.4411 17.9C21.3411 16.14 20.7911 14.09 20.7911 11.75C20.7911 9.41 21.3411 7.36 22.4411 5.6C23.5411 3.84 25.0811 2.47 27.0611 1.49C29.0611 0.509999 31.3811 0.019999 34.0211 0.019999C36.6611 0.019999 38.9711 0.509999 40.9511 1.49C42.9511 2.47 44.5011 3.84 45.6011 5.6C46.7211 7.36 47.2811 9.41 47.2811 11.75C47.2811 14.09 46.7211 16.14 45.6011 17.9C44.5011 19.66 42.9511 21.03 40.9511 22.01C38.9711 22.99 36.6611 23.48 34.0211 23.48ZM34.0211 18.41C35.5811 18.41 36.9211 18.15 38.0411 17.63C39.1611 17.09 40.0211 16.32 40.6211 15.32C41.2411 14.32 41.5511 13.13 41.5511 11.75C41.5511 10.37 41.2411 9.18 40.6211 8.18C40.0211 7.18 39.1611 6.42 38.0411 5.9C36.9211 5.36 35.5811 5.09 34.0211 5.09C32.4811 5.09 31.1511 5.36 30.0311 5.9C28.9111 6.42 28.0411 7.18 27.4211 8.18C26.8011 9.18 26.4911 10.37 26.4911 11.75C26.4911 13.13 26.8011 14.32 27.4211 15.32C28.0411 16.32 28.9111 17.09 30.0311 17.63C31.1511 18.15 32.4811 18.41 34.0211 18.41ZM73.5592 13.25C73.5192 14.61 73.2492 15.91 72.7492 17.15C72.2492 18.37 71.5292 19.46 70.5892 20.42C69.6492 21.36 68.4892 22.11 67.1092 22.67C65.7292 23.21 64.1192 23.48 62.2792 23.48C60.5192 23.48 58.8692 23.22 57.3292 22.7C55.8092 22.18 54.4692 21.42 53.3092 20.42C52.1492 19.4 51.2492 18.17 50.6092 16.73C49.9692 15.27 49.6492 13.61 49.6492 11.75C49.6492 9.89 49.9692 8.24 50.6092 6.8C51.2692 5.34 52.1792 4.11 53.3392 3.11C54.5192 2.09 55.8892 1.32 57.4492 0.8C59.0292 0.279999 60.7492 0.019999 62.6092 0.019999C65.0292 0.019999 67.1292 0.399999 68.9092 1.16C70.7092 1.92 72.1492 2.96 73.2292 4.28C74.3292 5.6 75.0292 7.12 75.3292 8.84H69.5992C69.3992 8 68.9792 7.28 68.3392 6.68C67.6992 6.06 66.8892 5.59 65.9092 5.27C64.9492 4.95 63.8492 4.79 62.6092 4.79C61.1092 4.79 59.8192 5.06 58.7392 5.6C57.6592 6.12 56.8192 6.9 56.2192 7.94C55.6192 8.96 55.3192 10.23 55.3192 11.75C55.3192 13.27 55.6292 14.56 56.2492 15.62C56.8892 16.68 57.7892 17.48 58.9492 18.02C60.1292 18.56 61.5092 18.83 63.0892 18.83C64.6292 18.83 65.9792 18.6 67.1392 18.14C68.3192 17.68 69.2492 17.02 69.9292 16.16C70.6292 15.3 71.0292 14.27 71.1292 13.07L73.5592 13.25ZM63.7492 15.53V11.51H75.5392V23H71.4892L70.7092 14L71.8492 15.53H63.7492ZM91.6188 23.48C88.9788 23.48 86.6588 22.99 84.6588 22.01C82.6788 21.03 81.1388 19.66 80.0388 17.9C78.9388 16.14 78.3888 14.09 78.3888 11.75C78.3888 9.41 78.9388 7.36 80.0388 5.6C81.1388 3.84 82.6788 2.47 84.6588 1.49C86.6588 0.509999 88.9788 0.019999 91.6188 0.019999C94.2588 0.019999 96.5688 0.509999 98.5488 1.49C100.549 2.47 102.099 3.84 103.199 5.6C104.319 7.36 104.879 9.41 104.879 11.75C104.879 14.09 104.319 16.14 103.199 17.9C102.099 19.66 100.549 21.03 98.5488 22.01C96.5688 22.99 94.2588 23.48 91.6188 23.48ZM91.6188 18.41C93.1788 18.41 94.5188 18.15 95.6388 17.63C96.7588 17.09 97.6188 16.32 98.2188 15.32C98.8388 14.32 99.1488 13.13 99.1488 11.75C99.1488 10.37 98.8388 9.18 98.2188 8.18C97.6188 7.18 96.7588 6.42 95.6388 5.9C94.5188 5.36 93.1788 5.09 91.6188 5.09C90.0788 5.09 88.7488 5.36 87.6288 5.9C86.5088 6.42 85.6388 7.18 85.0188 8.18C84.3988 9.18 84.0888 10.37 84.0888 11.75C84.0888 13.13 84.3988 14.32 85.0188 15.32C85.6388 16.32 86.5088 17.09 87.6288 17.63C88.7488 18.15 90.0788 18.41 91.6188 18.41Z" fill="#FFF385"/>
</svg>
