<svg viewBox="0 0 49 48" xmlns="http://www.w3.org/2000/svg"><path d="M24.24 0c-6.583 0-7.41.029-9.995.145-2.58.117-4.341.522-5.882 1.115-1.594.613-2.946 1.433-4.294 2.768S1.893 6.7 1.272 8.278C.672 9.806.262 11.55.146 14.105.03 16.664 0 17.482 0 24s.03 7.334.146 9.894c.12 2.555.528 4.299 1.126 5.825.62 1.578 1.448 2.917 2.796 4.252 1.346 1.335 2.699 2.157 4.292 2.77 1.542.593 3.304.998 5.883 1.114 2.586.117 3.411.146 9.993.146s7.407-.029 9.992-.145c2.58-.117 4.343-.522 5.886-1.116 1.593-.613 2.943-1.434 4.29-2.77 1.348-1.334 2.176-2.673 2.797-4.25.596-1.527 1.005-3.272 1.126-5.826.117-2.56.147-3.376.147-9.894s-.03-7.336-.147-9.896c-.12-2.555-.53-4.299-1.126-5.825-.62-1.578-1.449-2.917-2.797-4.251s-2.696-2.155-4.292-2.768C38.567.667 36.805.262 34.224.145 31.64.029 30.816 0 24.232 0zm-2.175 4.325h2.174c6.471 0 7.238.023 9.794.138 2.363.107 3.646.498 4.5.827 1.131.435 1.938.955 2.785 1.795.849.84 1.374 1.64 1.814 2.76.332.845.727 2.115.835 4.455.116 2.53.141 3.29.141 9.695s-.025 7.165-.141 9.695c-.108 2.34-.503 3.61-.835 4.455-.44 1.12-.965 1.917-1.814 2.757-.848.84-1.653 1.36-2.785 1.795-.853.33-2.137.72-4.5.827-2.555.115-3.323.14-9.794.14-6.472 0-7.239-.025-9.794-.14-2.363-.108-3.645-.5-4.5-.828-1.131-.435-1.94-.955-2.787-1.795-.849-.84-1.374-1.638-1.814-2.758-.332-.845-.727-2.115-.835-4.455-.116-2.53-.14-3.29-.14-9.7 0-6.408.024-7.164.14-9.694.108-2.34.503-3.61.835-4.456.44-1.12.965-1.92 1.814-2.76.848-.84 1.656-1.36 2.787-1.796.854-.33 2.137-.72 4.5-.828 2.236-.1 3.103-.13 7.62-.135zM37.177 8.31c-1.606 0-2.909 1.289-2.909 2.88s1.303 2.88 2.909 2.88 2.908-1.29 2.908-2.88-1.303-2.88-2.908-2.88m-12.938 3.365c-6.874 0-12.447 5.519-12.447 12.325 0 6.807 5.573 12.323 12.447 12.323S36.684 30.807 36.684 24c0-6.806-5.571-12.325-12.445-12.325m0 4.325c4.462 0 8.08 3.582 8.08 8s-3.618 8-8.08 8-8.079-3.582-8.079-8 3.617-8 8.08-8"/></svg>