<svg viewBox="0 0 13 21" xmlns="http://www.w3.org/2000/svg"><path fill-rule="evenodd" clip-rule="evenodd" d="M1.3 5.25C1.3 2.35 3.628 0 6.5 0s5.2 2.35 5.2 5.25c0 2.677-1.985 4.886-4.55 5.21v7.259a.653.653 0 0 1-.65.656.653.653 0 0 1-.65-.656v-7.26C3.285 10.136 1.3 7.927 1.3 5.25m3.241 11.254a.656.656 0 0 1-.535.754c-.925.155-1.663.387-2.15.646-.245.13-.397.252-.482.349a.4.4 0 0 0-.073.117l-.001.005.002.01a.2.2 0 0 0 .02.043.8.8 0 0 0 .19.198c.215.17.566.353 1.057.518.976.33 2.366.544 3.931.544s2.955-.215 3.931-.543c.492-.166.842-.348 1.057-.52a.8.8 0 0 0 .19-.197.2.2 0 0 0 .02-.043l.002-.01v-.005l-.007-.018a.4.4 0 0 0-.067-.1 1.7 1.7 0 0 0-.482-.348c-.487-.259-1.225-.491-2.15-.646a.656.656 0 0 1-.535-.754.65.65 0 0 1 .747-.54c1.002.167 1.889.43 2.544.78.601.319 1.25.845 1.25 1.631 0 .56-.337.987-.707 1.282-.378.3-.884.542-1.45.733C9.7 20.774 8.165 21 6.5 21s-3.201-.226-4.342-.61c-.567-.191-1.073-.433-1.45-.733-.37-.295-.708-.723-.708-1.282 0-.786.649-1.312 1.25-1.632.655-.348 1.542-.612 2.544-.78a.65.65 0 0 1 .747.54"/></svg>