<svg viewBox="0 0 41 26" xmlns="http://www.w3.org/2000/svg"><path d="M16.612 3.955C15.002 1.575 12.208 0 9.03 0 4.043 0 0 3.88 0 8.667c0 4.786 4.043 8.666 9.03 8.666a9.27 9.27 0 0 0 4.849-1.353c-.713 2.022-2.032 4.179-4.215 6.348a2.105 2.105 0 0 0 .056 3.064 2.325 2.325 0 0 0 3.192-.054c8.059-8.01 7.01-16.714 3.7-21.383"/><path d="M38.285 3.955C36.675 1.575 33.881 0 30.705 0c-4.988 0-9.031 3.88-9.031 8.667 0 4.786 4.043 8.666 9.03 8.666a9.27 9.27 0 0 0 4.848-1.353c-.712 2.022-2.032 4.179-4.214 6.348a2.106 2.106 0 0 0 .056 3.064 2.325 2.325 0 0 0 3.192-.054c8.058-8.01 7.01-16.714 3.699-21.383"/></svg>