<svg viewBox="0 0 49 48" xmlns="http://www.w3.org/2000/svg"><path d="M41.446 6.98C36.92 2.474 30.885 0 24.459 0 11.226 0 .445 10.674.434 23.778a23.66 23.66 0 0 0 3.201 11.894L.24 48l12.737-3.307A24.2 24.2 0 0 0 24.46 47.59h.011c13.233 0 24.012-10.675 24.024-23.79-.012-6.352-2.51-12.327-7.048-16.82M24.459 43.563c-3.594 0-7.106-.958-10.17-2.76l-.725-.433-7.555 1.961 2.015-7.299-.472-.752A19.54 19.54 0 0 1 4.5 23.766c0-10.88 8.96-19.752 19.97-19.752a19.98 19.98 0 0 1 14.12 5.794c3.765 3.74 5.838 8.7 5.838 13.981-.011 10.914-8.971 19.775-19.97 19.775M35.41 28.76c-.599-.296-3.547-1.733-4.1-1.938-.553-.194-.956-.297-1.348.296-.403.593-1.554 1.939-1.9 2.326-.345.4-.702.445-1.301.149s-2.534-.924-4.826-2.954c-1.785-1.574-2.983-3.524-3.34-4.117-.345-.593-.034-.912.265-1.209.265-.262.6-.695.899-1.037.3-.343.403-.594.598-.993.196-.399.104-.74-.046-1.037s-1.347-3.228-1.854-4.414c-.483-1.163-.979-1.003-1.347-1.015-.346-.023-.749-.023-1.152-.023s-1.048.149-1.6.742c-.553.593-2.097 2.03-2.097 4.96s2.154 5.748 2.453 6.147c.3.4 4.227 6.398 10.25 8.975 1.428.616 2.545.981 3.42 1.255 1.44.456 2.742.388 3.778.24 1.152-.172 3.547-1.438 4.054-2.829.495-1.391.495-2.577.346-2.828s-.553-.4-1.152-.696"/></svg>