<svg xmlns="http://www.w3.org/2000/svg" xmlns:xlink="http://www.w3.org/1999/xlink"><symbol id="sprite-arrow-slider" viewBox="0 0 9 12"><path d="m7.9 6.753-5.482 4.796a1 1 0 0 1-1.659-.753V1.204A1.001 1.001 0 0 1 2.418.45l5.481 4.797a1 1 0 0 1 0 1.505"/></symbol><use xlink:href="#sprite-arrow-slider" width="9" height="12" y="0"/><view id="sprite-arrow-slider-view" viewBox="0 0 9 12"/><symbol id="sprite-fb" viewBox="0 0 49 48"><path d="M48.474 24.146c0-13.337-10.852-24.148-24.239-24.148C10.85-.002-.003 10.809-.003 24.146c0 12.052 8.864 22.042 20.451 23.854V31.126h-6.154v-6.98h6.154v-5.32c0-6.052 3.619-9.395 9.155-9.395 2.652 0 5.426.471 5.426.471v5.943h-3.056c-3.011 0-3.95 1.861-3.95 3.771v4.53h6.722l-1.075 6.98h-5.647V48c11.587-1.812 20.45-11.802 20.45-23.854"/></symbol><use xlink:href="#sprite-fb" width="49" height="48" y="12"/><view id="sprite-fb-view" viewBox="0 12 49 48"/><symbol id="sprite-inst" viewBox="0 0 49 48"><path d="M24.24 0c-6.583 0-7.41.029-9.995.145-2.58.117-4.341.522-5.882 1.115-1.594.613-2.946 1.433-4.294 2.768S1.893 6.7 1.272 8.278C.672 9.806.262 11.55.146 14.105.03 16.664 0 17.482 0 24s.03 7.334.146 9.894c.12 2.555.528 4.299 1.126 5.825.62 1.578 1.448 2.917 2.796 4.252 1.346 1.335 2.699 2.157 4.292 2.77 1.542.593 3.304.998 5.883 1.114 2.586.117 3.411.146 9.993.146s7.407-.029 9.992-.145c2.58-.117 4.343-.522 5.886-1.116 1.593-.613 2.943-1.434 4.29-2.77 1.348-1.334 2.176-2.673 2.797-4.25.596-1.527 1.005-3.272 1.126-5.826.117-2.56.147-3.376.147-9.894s-.03-7.336-.147-9.896c-.12-2.555-.53-4.299-1.126-5.825-.62-1.578-1.449-2.917-2.797-4.251s-2.696-2.155-4.292-2.768C38.567.667 36.805.262 34.224.145 31.64.029 30.816 0 24.232 0zm-2.175 4.325h2.174c6.471 0 7.238.023 9.794.138 2.363.107 3.646.498 4.5.827 1.131.435 1.938.955 2.785 1.795.849.84 1.374 1.64 1.814 2.76.332.845.727 2.115.835 4.455.116 2.53.141 3.29.141 9.695s-.025 7.165-.141 9.695c-.108 2.34-.503 3.61-.835 4.455-.44 1.12-.965 1.917-1.814 2.757-.848.84-1.653 1.36-2.785 1.795-.853.33-2.137.72-4.5.827-2.555.115-3.323.14-9.794.14-6.472 0-7.239-.025-9.794-.14-2.363-.108-3.645-.5-4.5-.828-1.131-.435-1.94-.955-2.787-1.795-.849-.84-1.374-1.638-1.814-2.758-.332-.845-.727-2.115-.835-4.455-.116-2.53-.14-3.29-.14-9.7 0-6.408.024-7.164.14-9.694.108-2.34.503-3.61.835-4.456.44-1.12.965-1.92 1.814-2.76.848-.84 1.656-1.36 2.787-1.796.854-.33 2.137-.72 4.5-.828 2.236-.1 3.103-.13 7.62-.135zM37.177 8.31c-1.606 0-2.909 1.289-2.909 2.88s1.303 2.88 2.909 2.88 2.908-1.29 2.908-2.88-1.303-2.88-2.908-2.88m-12.938 3.365c-6.874 0-12.447 5.519-12.447 12.325 0 6.807 5.573 12.323 12.447 12.323S36.684 30.807 36.684 24c0-6.806-5.571-12.325-12.445-12.325m0 4.325c4.462 0 8.08 3.582 8.08 8s-3.618 8-8.08 8-8.079-3.582-8.079-8 3.617-8 8.08-8"/></symbol><use xlink:href="#sprite-inst" width="49" height="48" y="60"/><view id="sprite-inst-view" viewBox="0 60 49 48"/><symbol id="sprite-location" viewBox="0 0 13 21"><path fill-rule="evenodd" clip-rule="evenodd" d="M1.3 5.25C1.3 2.35 3.628 0 6.5 0s5.2 2.35 5.2 5.25c0 2.677-1.985 4.886-4.55 5.21v7.259a.653.653 0 0 1-.65.656.653.653 0 0 1-.65-.656v-7.26C3.285 10.136 1.3 7.927 1.3 5.25m3.241 11.254a.656.656 0 0 1-.535.754c-.925.155-1.663.387-2.15.646-.245.13-.397.252-.482.349a.4.4 0 0 0-.073.117l-.001.005.002.01a.2.2 0 0 0 .02.043.8.8 0 0 0 .19.198c.215.17.566.353 1.057.518.976.33 2.366.544 3.931.544s2.955-.215 3.931-.543c.492-.166.842-.348 1.057-.52a.8.8 0 0 0 .19-.197.2.2 0 0 0 .02-.043l.002-.01v-.005l-.007-.018a.4.4 0 0 0-.067-.1 1.7 1.7 0 0 0-.482-.348c-.487-.259-1.225-.491-2.15-.646a.656.656 0 0 1-.535-.754.65.65 0 0 1 .747-.54c1.002.167 1.889.43 2.544.78.601.319 1.25.845 1.25 1.631 0 .56-.337.987-.707 1.282-.378.3-.884.542-1.45.733C9.7 20.774 8.165 21 6.5 21s-3.201-.226-4.342-.61c-.567-.191-1.073-.433-1.45-.733-.37-.295-.708-.723-.708-1.282 0-.786.649-1.312 1.25-1.632.655-.348 1.542-.612 2.544-.78a.65.65 0 0 1 .747.54"/></symbol><use xlink:href="#sprite-location" width="13" height="21" y="108"/><view id="sprite-location-view" viewBox="0 108 13 21"/><symbol id="sprite-quote" viewBox="0 0 41 26"><path d="M16.612 3.955C15.002 1.575 12.208 0 9.03 0 4.043 0 0 3.88 0 8.667c0 4.786 4.043 8.666 9.03 8.666a9.27 9.27 0 0 0 4.849-1.353c-.713 2.022-2.032 4.179-4.215 6.348a2.105 2.105 0 0 0 .056 3.064 2.325 2.325 0 0 0 3.192-.054c8.059-8.01 7.01-16.714 3.7-21.383"/><path d="M38.285 3.955C36.675 1.575 33.881 0 30.705 0c-4.988 0-9.031 3.88-9.031 8.667 0 4.786 4.043 8.666 9.03 8.666a9.27 9.27 0 0 0 4.848-1.353c-.712 2.022-2.032 4.179-4.214 6.348a2.106 2.106 0 0 0 .056 3.064 2.325 2.325 0 0 0 3.192-.054c8.058-8.01 7.01-16.714 3.699-21.383"/></symbol><use xlink:href="#sprite-quote" width="41" height="26" y="129"/><view id="sprite-quote-view" viewBox="0 129 41 26"/><symbol id="sprite-wha" viewBox="0 0 49 48"><path d="M41.446 6.98C36.92 2.474 30.885 0 24.459 0 11.226 0 .445 10.674.434 23.778a23.66 23.66 0 0 0 3.201 11.894L.24 48l12.737-3.307A24.2 24.2 0 0 0 24.46 47.59h.011c13.233 0 24.012-10.675 24.024-23.79-.012-6.352-2.51-12.327-7.048-16.82M24.459 43.563c-3.594 0-7.106-.958-10.17-2.76l-.725-.433-7.555 1.961 2.015-7.299-.472-.752A19.54 19.54 0 0 1 4.5 23.766c0-10.88 8.96-19.752 19.97-19.752a19.98 19.98 0 0 1 14.12 5.794c3.765 3.74 5.838 8.7 5.838 13.981-.011 10.914-8.971 19.775-19.97 19.775M35.41 28.76c-.599-.296-3.547-1.733-4.1-1.938-.553-.194-.956-.297-1.348.296-.403.593-1.554 1.939-1.9 2.326-.345.4-.702.445-1.301.149s-2.534-.924-4.826-2.954c-1.785-1.574-2.983-3.524-3.34-4.117-.345-.593-.034-.912.265-1.209.265-.262.6-.695.899-1.037.3-.343.403-.594.598-.993.196-.399.104-.74-.046-1.037s-1.347-3.228-1.854-4.414c-.483-1.163-.979-1.003-1.347-1.015-.346-.023-.749-.023-1.152-.023s-1.048.149-1.6.742c-.553.593-2.097 2.03-2.097 4.96s2.154 5.748 2.453 6.147c.3.4 4.227 6.398 10.25 8.975 1.428.616 2.545.981 3.42 1.255 1.44.456 2.742.388 3.778.24 1.152-.172 3.547-1.438 4.054-2.829.495-1.391.495-2.577.346-2.828s-.553-.4-1.152-.696"/></symbol><use xlink:href="#sprite-wha" width="49" height="48" y="155"/><view id="sprite-wha-view" viewBox="0 155 49 48"/></svg>